<svg xmlns="http://www.w3.org/2000/svg" xmlns:xlink="http://www.w3.org/1999/xlink" version="1.1" id="_x31_" x="0px" y="0px" style="enable-background:new 0 0 1200 1200;" xml:space="preserve" viewBox="0 83.1 1200 1033.79">
<style type="text/css">
	.st0{fill:#F96DFF;}
	.st1{fill:#A91611;}
	.st2{fill:#5FF0FF;}
</style>
<g>
	<g>
		<polygon class="st0" points="15.21,765.69 600,429.71 15.21,98.32   "/>
		<path d="M15.21,780.9c-2.63,0-5.26-0.68-7.62-2.05C2.89,776.14,0,771.12,0,765.69V98.32c0-5.41,2.88-10.42,7.55-13.14    c4.68-2.72,10.45-2.76,15.16-0.09L607.5,416.47c4.75,2.69,7.7,7.73,7.71,13.19c0.02,5.46-2.9,10.51-7.63,13.23L22.79,778.88    C20.44,780.23,17.83,780.9,15.21,780.9z M30.42,124.42v614.99L569.31,429.8L30.42,124.42z"/>
	</g>
	<g>
		<polygon class="st1" points="600,429.71 15.21,765.69 600,1101.68 1184.79,765.69   "/>
		<path d="M600,1116.89c-2.62,0-5.23-0.67-7.58-2.02L7.63,778.88C2.91,776.17,0,771.14,0,765.69c0-5.45,2.91-10.48,7.63-13.19    l584.79-335.99c4.69-2.7,10.46-2.7,15.15,0l584.79,335.99c4.72,2.71,7.63,7.74,7.63,13.19c0,5.45-2.91,10.48-7.63,13.19    l-584.79,335.99C605.23,1116.22,602.62,1116.89,600,1116.89z M45.74,765.69L600,1084.14l554.26-318.44L600,447.25L45.74,765.69z"/>
	</g>
	<g>
		<polygon class="st2" points="1184.79,765.69 600,429.71 1184.79,98.32   "/>
		<path d="M1184.79,780.9c-2.62,0-5.23-0.67-7.58-2.02L592.42,442.89c-4.74-2.72-7.65-7.77-7.63-13.23    c0.02-5.46,2.96-10.5,7.71-13.19l584.79-331.39c4.71-2.67,10.48-2.63,15.16,0.09c4.68,2.72,7.55,7.73,7.55,13.14v667.37    c0,5.43-2.89,10.44-7.59,13.16C1190.05,780.22,1187.42,780.9,1184.79,780.9z M630.69,429.8l538.89,309.62V124.42L630.69,429.8z"/>
	</g>
</g>
</svg>