<svg xmlns="http://www.w3.org/2000/svg" xmlns:xlink="http://www.w3.org/1999/xlink" version="1.1" x="0px" y="0px" style="enable-background:new 0 0 2300 1200;" xml:space="preserve" viewBox="60 170 2240 860">
<style type="text/css">
	.st0{fill:#F96DFF;}
	.st1{fill:#FFFFFF;}
	.st2{fill:#A91611;}
	.st3{fill:#5FF0FF;}
	.st4{font-family:'Helvetica';}
	.st5{font-size:390.451px;}
</style>
<g id="_x31_">
	<g>
		<g>
			<polygon class="st0" points="73.31,737.84 585,458.33 73.31,182.65    "/>
			<path class="st1" d="M73.31,750.49c-2.3,0-4.6-0.57-6.67-1.7c-4.11-2.26-6.64-6.44-6.64-10.95V182.65c0-4.5,2.52-8.67,6.61-10.93     c4.09-2.27,9.14-2.3,13.26-0.08l511.69,275.68c4.16,2.24,6.73,6.43,6.75,10.97c0.01,4.54-2.53,8.75-6.68,11.01L79.94,748.81     C77.89,749.93,75.6,750.49,73.31,750.49z M86.62,204.37v511.61l471.53-257.57L86.62,204.37z"/>
		</g>
		<g>
			<polygon class="st2" points="585,458.33 73.31,737.84 585,1017.35 1096.69,737.84    "/>
			<path class="st1" d="M585,1030c-2.29,0-4.58-0.56-6.63-1.68L66.68,748.81c-4.13-2.26-6.68-6.44-6.68-10.97s2.55-8.71,6.68-10.97     l511.69-279.51c4.1-2.24,9.15-2.24,13.26,0l511.69,279.51c4.13,2.26,6.68,6.44,6.68,10.97s-2.55,8.71-6.68,10.97l-511.69,279.51     C589.58,1029.44,587.29,1030,585,1030z M100.02,737.84L585,1002.75l484.98-264.91L585,472.93L100.02,737.84z"/>
		</g>
		<g>
			<polygon class="st3" points="1096.69,737.84 585,458.33 1096.69,182.65    "/>
			<path class="st1" d="M1096.69,750.49c-2.29,0-4.58-0.56-6.63-1.68L578.37,469.3c-4.14-2.26-6.69-6.47-6.68-11.01     c0.01-4.54,2.59-8.73,6.75-10.97l511.69-275.68c4.12-2.22,9.17-2.19,13.26,0.08c4.09,2.27,6.61,6.43,6.61,10.93v555.19     c0,4.52-2.53,8.69-6.64,10.95C1101.3,749.93,1098.99,750.49,1096.69,750.49z M611.85,458.41l471.53,257.57V204.37L611.85,458.41z     "/>
		</g>
	</g>
</g>
<g id="Layer_2">
	<text transform="matrix(1 0 0 1 1150 673.7339)" class="st1 st4 st5">JeCFe</text>
</g>
</svg>